<?xml version="1.0" encoding="utf-8"?>
<!-- Generator: Adobe Illustrator 24.1.2, SVG Export Plug-In . SVG Version: 6.00 Build 0)  -->
<svg version="1.1" id="Слой_1" xmlns="http://www.w3.org/2000/svg" xmlns:xlink="http://www.w3.org/1999/xlink" x="0px" y="0px"
	 viewBox="0 0 841.9 595.3" style="enable-background:new 0 0 841.9 595.3;" xml:space="preserve">
<style type="text/css">
	.st0{fill:#676767;}
	.st1{fill:#EFA324;}
	.st2{font-family:'Tahoma-Bold';}
	.st3{font-size:33.7505px;}
</style>
<g>
	<path class="st0" d="M434.6,310.5c3-3,5.5-6.2,7.6-9.7l-13.2-13.2c-2.7,3.5-5.2,6.5-7.9,9.3c-12.3,12.3-32.2,12.3-44.5,0
		c-12.3-12.3-12.3-32.2,0-44.5c10.7-10.7,27.3-12.1,39.5-4.1l-26.7,26.7l13.2,13.2l33.4-33.4l-0.1-0.1l6.4-6.4
		c-2.1-3.4-4.6-6.6-7.5-9.6c-9.9-9.9-22.9-14.9-35.9-14.9c-13,0-25.9,5-35.8,14.9c-19.8,19.8-19.8,51.9,0,71.7
		C382.7,330.4,414.8,330.4,434.6,310.5"/>
	<path class="st1" d="M186.1,262.9c6.8,0,12.3,5.5,12.3,12.3c0,6.8-5.5,12.3-12.3,12.3c-6.8,0-12.3-5.5-12.3-12.3
		C173.8,268.5,179.3,262.9,186.1,262.9 M167.5,234.8l15.5,11.2L170.7,263h0c-0.2,0.2-0.4,0.5-0.5,0.7c-3.9,5.3-4.7,11.9-2.8,17.7
		c0.1,0.2,0.1,0.4,0.2,0.5c0.1,0.4,0.3,0.7,0.5,1.1c0.1,0.2,0.1,0.4,0.2,0.6c0.1,0.1,0.1,0.2,0.2,0.3c0.2,0.4,0.4,0.9,0.7,1.3v0
		c0.1,0.2,0.3,0.4,0.4,0.7c0.2,0.3,0.4,0.7,0.7,1c0,0,0,0,0,0c0,0.1,0.1,0.1,0.1,0.2c0.1,0.2,0.3,0.3,0.4,0.5h0l12.2,16.8
		l-15.4,11.2c-15.9-18.8-43.1-23.3-64.2-10.8c-4.6-19.6-4.5-39.9,0-59.2C124.4,258.1,151.6,253.6,167.5,234.8"/>
	<path class="st1" d="M227.7,230.2c2.1,6.5-1.4,13.4-7.9,15.5c-6.5,2.1-13.4-1.4-15.5-7.9c-2.1-6.5,1.5-13.4,7.9-15.5
		C218.6,220.3,225.6,223.8,227.7,230.2 M248.7,203.9l-5.9,18.2l-19.9-6.5l0,0c-0.3-0.1-0.6-0.2-0.8-0.3c-6.2-2-12.7-0.8-17.7,2.8
		c-0.2,0.1-0.3,0.2-0.5,0.3c-0.3,0.2-0.6,0.5-0.9,0.8c-0.2,0.1-0.3,0.2-0.5,0.4c-0.1,0.1-0.2,0.2-0.3,0.3c-0.4,0.3-0.7,0.7-1,1.1
		l0,0c-0.2,0.2-0.3,0.4-0.5,0.6c-0.2,0.3-0.5,0.6-0.8,1c0,0,0,0,0,0c0,0.1-0.1,0.1-0.1,0.2c-0.1,0.2-0.2,0.3-0.3,0.5l0,0L187.3,240
		l-15.4-11.2c13-20.9,8.9-48.2-9.6-64.4c17.2-10.4,36.5-16.6,56.3-18.3C213.2,170.1,225.9,194.6,248.7,203.9L248.7,203.9z"/>
	<path class="st1" d="M271.6,259.7c-5.5,4-13.2,2.8-17.2-2.7c-4-5.5-2.8-13.2,2.7-17.2c5.5-4,13.2-2.8,17.2,2.7
		C278.3,248,277.1,255.7,271.6,259.7 M303.2,271.5l-19.1,0l0-20.9l0,0c0-0.3,0-0.6,0-0.9c0-6.5-3.2-12.3-8.1-15.9
		c-0.2-0.1-0.3-0.2-0.4-0.3c-0.3-0.2-0.7-0.4-1-0.6c-0.2-0.1-0.3-0.2-0.5-0.3c-0.1-0.1-0.2-0.1-0.3-0.2c-0.4-0.2-0.9-0.5-1.3-0.7
		l0,0c-0.2-0.1-0.5-0.2-0.7-0.3c-0.4-0.1-0.8-0.3-1.2-0.4c0,0,0,0,0,0c-0.1,0-0.1-0.1-0.2-0.1c-0.2-0.1-0.4-0.1-0.6-0.2l0,0
		l-19.7-6.4l5.9-18.1c23.9,5.9,48.5-6.5,58.2-29c15.2,13.2,27.1,29.6,34.8,47.9C324.4,227.3,305,247,303.2,271.5"/>
	<path class="st1" d="M257.2,310.5c-5.5-4-6.7-11.7-2.7-17.2c4-5.5,11.7-6.7,17.2-2.7c5.5,4,6.7,11.7,2.7,17.2
		C270.4,313.3,262.7,314.5,257.2,310.5 M255.7,344.2l-5.9-18.2l19.9-6.5l0,0c0.3-0.1,0.6-0.2,0.8-0.3c6.2-2,10.7-6.9,12.6-12.7
		c0.1-0.2,0.1-0.3,0.2-0.5c0.1-0.4,0.2-0.8,0.3-1.2c0-0.2,0.1-0.4,0.2-0.6c0-0.1,0-0.3,0-0.4c0.1-0.5,0.2-1,0.2-1.5l0,0
		c0-0.3,0-0.5,0-0.8c0-0.4,0.1-0.8,0.1-1.2c0,0,0,0,0,0c0-0.1,0-0.2,0-0.2c0-0.2,0-0.4,0-0.6l0,0l0-20.7l19,0
		c1.8,24.5,21.2,44.2,45.6,46.4c-7.8,18.5-19.8,34.9-34.8,47.9C304.3,350.7,279.6,338.4,255.7,344.2L255.7,344.2z"/>
	<path class="st1" d="M204.4,312.6c2.1-6.5,9.1-10,15.5-7.9c6.5,2.1,10,9,7.9,15.5c-2.1,6.5-9,10-15.5,7.9
		C205.8,326,202.3,319,204.4,312.6 M171.9,321.6l15.5-11.2l12.3,16.9l0,0c0.2,0.2,0.3,0.5,0.5,0.7c3.8,5.3,9.8,8.1,15.9,8.1
		c0.2,0,0.4,0,0.6,0c0.4,0,0.8-0.1,1.2-0.1c0.2,0,0.4,0,0.6,0c0.1,0,0.3-0.1,0.4-0.1c0.5-0.1,1-0.1,1.5-0.2l0,0
		c0.3-0.1,0.5-0.1,0.8-0.2c0.4-0.1,0.8-0.2,1.2-0.3c0,0,0,0,0,0c0.1,0,0.1,0,0.2-0.1c0.2-0.1,0.4-0.1,0.6-0.2l0,0l19.7-6.4l5.9,18.1
		c-22.8,9.3-35.5,33.8-30.1,57.7c-20-1.7-39.3-8-56.3-18.3C180.7,369.8,184.8,342.5,171.9,321.6"/>
	<path class="st0" d="M446.6,161.8V272c0,0.9-0.1,1.7-0.1,2.6c0,0.8,0,1.5,0.1,2.3c1.2,27,23.4,48.4,50.7,48.4
		c28,0,50.7-22.7,50.7-50.7c0-28-22.7-50.7-50.7-50.7c-4.2,0-8.3,0.5-12.3,1.5v18.7c4.4-0.6,8.1-0.9,12.3-0.9
		c17.4,0,31.5,14.1,31.5,31.5c0,17.4-14.1,31.5-31.5,31.5c-16.6,0-30.2-12.9-31.4-29.2v-4.7c0-0.1,0-0.2,0-0.3v-37.1c0,0,0,0,0,0
		v-73.1H446.6z"/>
	<path class="st0" d="M734.4,238.8c3,3,5.4,6.2,7.5,9.6l-6.4,6.4l0.1,0.1l-6.7,6.7c-2.2-2.9-4.7-5.8-7.4-8.5
		c-5.7-6.2-13.9-10.1-23-10.1c-17.4,0-31.5,14.1-31.5,31.5c0,3.2,0.5,6.2,1.3,9.1c0.1,0.5,0.3,1,0.5,1.4c0.1,0.4,0.2,0.7,0.4,1
		c0.1,0.1,0.1,0.3,0.1,0.4c0,0.1,0.1,0.2,0.2,0.3c0.2,0.4,0.3,0.7,0.5,1.1c0,0.1,0.1,0.2,0.1,0.3c0.2,0.4,0.4,0.7,0.6,1.1
		c0.2,0.3,0.3,0.6,0.5,0.8c0.1,0.2,0.3,0.5,0.4,0.8c0.2,0.4,0.5,0.8,0.7,1.2c0.1,0.1,0.1,0.2,0.2,0.2c0.2,0.3,0.4,0.7,0.7,1
		c0,0,0.1,0,0.1,0.1c0.6,0.8,1.2,1.6,1.9,2.4c0.3,0.4,0.7,0.7,1.1,1.1c0,0,0,0.1,0.1,0.1c12.3,12.3,32.2,12.3,44.5,0
		c2.9-3,5.8-6.4,8-9.3l13.2,13.2c-2.1,3.5-4.6,6.7-7.6,9.7c-19.8,19.8-51.9,19.8-71.7,0c-19.8-19.8-19.8-51.9,0-71.7
		c9.9-9.9,22.9-14.9,35.8-14.9C711.5,223.9,724.5,228.9,734.4,238.8L734.4,238.8z"/>
	<path class="st0" d="M640.7,310.5c3-3,5.5-6.2,7.6-9.7L635,287.6c-2.7,3.5-5.2,6.5-7.9,9.3c-12.3,12.3-32.2,12.3-44.5,0
		c-12.3-12.3-12.3-32.2,0-44.5c10.7-10.7,27.3-12.1,39.5-4.1L595.3,275l13.2,13.2l33.4-33.4l-0.1-0.1l6.4-6.4
		c-2.1-3.4-4.6-6.6-7.5-9.6c-9.9-9.9-22.9-14.9-35.9-14.9c-13,0-25.9,5-35.8,14.9c-19.8,19.8-19.8,51.9,0,71.7
		C588.8,330.3,620.9,330.3,640.7,310.5"/>
</g>
<text transform="matrix(1 0 0 1 660.1667 357.4479)" class="st1 st2 st3">LVIV</text>
</svg>
